<svg xmlns="http://www.w3.org/2000/svg" xmlns:xlink="http://www.w3.org/1999/xlink" version="1.1" x="0px" y="0px" viewBox="0 0 100 125" style="enable-background:new 0 0 100 100;" xml:space="preserve"><g><path d="M34.2,52.7c-0.1,0-0.1,0-0.2,0c0-0.1,0.1-0.1,0.1-0.2c0.1-0.5,0.1-1-0.2-1.4c-0.3-0.5-0.8-0.9-1.3-0.9   c0-0.1,0.1-0.1,0.1-0.2c0.1-0.5,0.1-1-0.2-1.4c-0.2-0.4-0.6-0.8-1.1-0.9c-0.5-0.1-1-0.1-1.4,0.2c-0.2,0.1-0.3,0.4-0.2,0.6   c0.1,0.2,0.4,0.3,0.6,0.2c0.2-0.1,0.5-0.2,0.8-0.1c0.3,0.1,0.5,0.3,0.6,0.5c0.1,0.2,0.2,0.5,0.1,0.8c-0.1,0.3-0.3,0.5-0.5,0.6   c-0.2,0.1-0.3,0.4-0.2,0.6c0.1,0.2,0.4,0.3,0.6,0.2c0.5-0.3,1.1-0.1,1.4,0.4c0.1,0.2,0.2,0.5,0.1,0.8c-0.1,0.3-0.3,0.5-0.5,0.6   c-0.2,0.1-0.3,0.4-0.2,0.6c0.1,0.2,0.4,0.3,0.6,0.2c0.2-0.1,0.5-0.2,0.8-0.1c0.3,0.1,0.5,0.3,0.6,0.5c0.1,0.2,0.2,0.5,0.1,0.8   c-0.1,0.3-0.3,0.5-0.5,0.6C34,55.6,33.9,55.8,34,56c0.1,0.2,0.4,0.3,0.6,0.2c0.3-0.1,0.5-0.3,0.7-0.6c0.1-0.2,0.2-0.3,0.2-0.5   c0.1-0.5,0.1-1-0.2-1.4C35.1,53.2,34.7,52.9,34.2,52.7z"/><path d="M35.8,50.2c-0.1,0-0.1,0-0.2,0c0-0.1,0.1-0.1,0.1-0.2c0.1-0.5,0.1-1-0.2-1.4c-0.2-0.4-0.6-0.8-1.1-0.9   c-0.5-0.1-1-0.1-1.4,0.2c-0.2,0.1-0.3,0.4-0.2,0.6c0.1,0.2,0.4,0.3,0.6,0.2c0.2-0.1,0.5-0.2,0.8-0.1c0.3,0.1,0.5,0.3,0.6,0.5   c0.1,0.2,0.2,0.5,0.1,0.8c-0.1,0.3-0.3,0.5-0.5,0.6c-0.2,0.1-0.3,0.4-0.2,0.6c0.1,0.2,0.4,0.3,0.6,0.2c0.2-0.1,0.5-0.2,0.8-0.1   c0.3,0.1,0.5,0.3,0.6,0.5c0.1,0.2,0.2,0.5,0.1,0.8c-0.1,0.3-0.3,0.5-0.5,0.6c-0.2,0.1-0.3,0.4-0.2,0.6c0.1,0.2,0.4,0.3,0.6,0.2   c0.3-0.1,0.5-0.3,0.7-0.6c0.1-0.2,0.2-0.3,0.2-0.5c0.1-0.5,0.1-1-0.2-1.4C36.6,50.6,36.2,50.3,35.8,50.2z"/><path d="M14.1,58.1c-3.6,0-6.5,2.9-6.5,6.5c0,3.6,2.9,6.5,6.5,6.5s6.5-2.9,6.5-6.5C20.6,61,17.7,58.1,14.1,58.1z    M14.1,69.4c-2.7,0-4.8-2.2-4.8-4.8c0-2.7,2.2-4.8,4.8-4.8S19,62,19,64.6C19,67.3,16.8,69.4,14.1,69.4z"/><path d="M42.1,70.2c-0.2,0.1-0.4,0.2-0.7,0.4c-0.2,0.1-0.3,0.4-0.2,0.6c0.1,0.1,0.2,0.2,0.4,0.2   c0.1,0,0.1,0,0.2,0c0.2-0.1,0.5-0.2,0.7-0.4c0.2-0.1,0.3-0.4,0.1-0.6C42.6,70.2,42.3,70.1,42.1,70.2z"/><path d="M45.5,53.1c-0.2,0.1-0.3,0.4-0.1,0.6c0,0,2.1,3.4,2,7.6c0,3-1.4,5.8-3.7,7.8c-0.2,0.1-0.2,0.4,0,0.6   c0.1,0.1,0.2,0.1,0.3,0.1c0.1,0,0.2,0,0.3-0.1c2.5-2.1,3.9-5.2,4-8.4c0.1-4.4-2-7.9-2.1-8C46,53.1,45.7,53,45.5,53.1z"/><path d="M97.6,16.4c-0.1-0.3-0.4-0.6-0.8-0.6c-18.3-0.1-20.9,15.8-20.9,16c-1.6,8.8-15.3,14.9-17.3,15   c-0.1-0.1-0.3-0.2-0.5-0.3c0.7-1.4,1.7-4.6-0.6-8.5c-2.9-5-7.7-5.5-11.6-5.9c-2-0.2-3.7-0.4-4.6-1.1c-0.8-0.6-1.2-1.8-1.6-3.1   c-0.5-1.6-1.1-3.5-2.9-4.2c-1.6-0.7-3.9-0.2-7.1,1.5c-4.9,2.5-8.2,7.4-9.7,14.1c-0.9,4.1-0.9,7.7-0.8,8.9c-2.6,1.9-5,4.1-7.3,6.6   c-0.7-0.2-1.3-0.3-2-0.3c-4,0-7.2,3.2-7.2,7.2c0,1.5,0.4,2.9,1.2,4c-0.9,1.8-0.4,4.1,1.2,5.3c4.8,3.8,13.4,5.5,21.2,6   c0,0,0.1,0,0.1,0c0,0,0,0,0.1,0c1.3,0.1,2.7,0.1,3.9,0.1c3.7,0,7.1-0.3,9.3-0.8c0.5-0.1,0.9-0.2,1.4-0.4c1.1,2.3,5,9.1,12.9,9.1   c2.4,0,4.3-0.7,5.5-2.2c1.2-1.4,1.8-3.3,1.6-5.4c-0.2-2.2-1.4-4.1-3.2-5.4c-1.9-1.4-4.4-1.9-6.7-1.4c-0.7,0.1-1.4,0.2-2.2,0.3   c2.4-2.9,3.8-6.8,4.8-11.4c0,0,0,0,0,0c0.7,6,4,8.6,6.7,9.8c1.1,0.5,2.3,0.2,3.1-0.7c0.8-0.9,0.9-2.1,0.4-3.2   c-0.7-1.2-1-2.3-1.3-3.2c9.4,14.7,19.4,18.6,26.3,19.1c0,0,0,0,0.1,0c0.3,0,0.6-0.2,0.7-0.4c0.2-0.3,0.1-0.7-0.1-0.9   c0,0-2.8-3.5-0.4-8.6c2.8-5.8-1.7-15.6-7.3-19.9c10.9-4.1,10.5-15.1,9.8-19.9c-0.8-5.1,1-10.2,4.8-13.7c0.3-0.3,0.5-0.4,0.5-0.5   C97.6,17.1,97.7,16.7,97.6,16.4z M90.4,31.7c0.3,2,0.4,3.8,0.3,5.4C84.1,47.7,71.5,48.6,64.1,48c3.3-0.4,8-1.2,12.5-3.2   c4.3-1.9,8.7-4.3,11.4-9.5c0.1-0.3,0.3-0.6,0.5-0.9c0.6-1.1,1.2-2.4,1.8-3.3C90.3,31.3,90.3,31.5,90.4,31.7z M86.3,59   c-7.7,0.5-15.3-2.9-20-5.6c3.1,1.1,8.1,2.6,12.5,2.6c1.8,0,3.5-0.2,4.9-0.8C84.7,56.3,85.6,57.6,86.3,59z M88.2,63.7   C75.3,62.7,66.6,56,62.5,52.1c0.1,0,0.2,0.1,0.3,0.1c3.7,2.5,12.6,7.7,22,7.7c0.6,0,1.3,0,1.9-0.1C87.3,61.1,87.8,62.4,88.2,63.7z    M86.9,74.3c-22-7-27-19.7-28-24.2c0.7,1.5,2.2,4.4,5.2,7.5c4,4.2,11.4,9.6,24.1,12.4c-0.1,0.2-0.1,0.4-0.2,0.6   C87.3,71.9,87,73.2,86.9,74.3z M62.6,66.2c0.4,0.6,0,1.2-0.2,1.3c0,0-0.1,0.1-0.1,0.1c-3.4-2.2-5.3-5.8-5.7-10.7   c-0.1-1.1-0.1-2.1,0-3c0.2,3.8,1.4,8.8,5.7,11.8C62.4,65.8,62.5,66,62.6,66.2z M61,58.8c0,0-0.1,0.3-0.1,0.9   c-2-3.1-2.6-6.3-2.7-8.5c0.5,1.7,1.4,4.3,3.3,7.1C61.3,58.3,61.1,58.5,61,58.8z M57.4,51.6c0.2,2.6,1,6.1,3.6,9.5   c0.1,0.8,0.3,1.8,0.7,2.9C57.7,60.5,57.3,54.9,57.4,51.6z M60.2,50.9C60.2,50.9,60.2,50.9,60.2,50.9c3.2,3.5,12.9,12.5,28.2,13.6   c0.3,1.7,0.4,3.3,0,4.7C69.8,65.2,62.6,55.4,60.2,50.9z M68.8,43.6c4.5-2.6,10.1-7,11.8-12.7c2.1-6.8,5.9-10.4,7.9-12   c1.7-0.6,3.6-1.1,5.8-1.3c-2.4,1.4-6.7,5.2-10.5,14.8c-3.7,9.3-13.6,12.7-19.5,13.9C65.7,45.6,67.3,44.7,68.8,43.6z M77.5,32.1   c0-0.1,1.3-7.6,8.2-11.8c-2,2.1-4.4,5.4-5.9,10.4c-0.9,3-3,5.6-5.4,7.8C76,36.5,77.1,34.4,77.5,32.1z M48.1,41.9   c2.9-0.1,6.6,0,9.2,0.7c0,1.3-0.3,2.3-0.6,2.9C54.9,44.5,51.9,43,48.1,41.9z M56.6,39.6c0.4,0.8,0.6,1.5,0.7,2.2   c-3.8-1-9.4-0.7-12.2-0.5c-0.8-0.1-1.7-0.3-2.6-0.4C44.9,40.1,49.5,39.2,56.6,39.6z M56.1,38.8c-9.1-0.5-13.9,1.2-15.7,2   c-0.8,0-1.5,0-2.3,0c2.6-1.3,7.6-3.3,16.1-4.4C54.9,37,55.5,37.8,56.1,38.8z M53.2,35.7c-10.2,1.4-15.3,4.1-17.1,5.3   c-0.9,0.1-1.8,0.2-2.7,0.4c1.8-1.8,6.2-4.9,16-7.2C50.7,34.5,52,35,53.2,35.7z M47.2,33.9c-10.3,2.7-14.1,6.3-15.3,7.9   c-0.7,0.2-1.3,0.4-2,0.6c1.8-2.3,5.7-6.4,12.8-9.1c0.9,0.2,2,0.3,3.1,0.4C46.3,33.8,46.8,33.9,47.2,33.9z M41.4,32.9   c-7.9,3.3-11.7,8.1-12.9,10c-0.4,0.1-0.7,0.3-1.1,0.5c0,0,0,0,0,0c1.1-2.6,4.2-8,11.8-12.2c0.3,0.5,0.7,0.9,1.1,1.2   C40.7,32.6,41.1,32.8,41.4,32.9z M38.1,28.5c0.2,0.7,0.4,1.3,0.7,2C30,35.3,27.1,41.8,26.3,43.9c-0.4,0.2-0.9,0.4-1.3,0.7   c1.1-3.4,4.6-11.9,12.8-17.3C37.9,27.6,38,28,38.1,28.5z M36.2,25.3c0.5,0.2,0.9,0.7,1.2,1.2c-9.3,6-12.7,15.9-13.5,18.6   c-0.3,0.2-0.7,0.4-1,0.6c0.6-3.8,2.9-14.5,10.5-20.3C34.6,25.1,35.6,25,36.2,25.3z M30.5,26.7c0.2-0.1,0.3-0.2,0.5-0.2   c-6.8,6.6-8.6,17-9,19.8c-0.4,0.2-0.8,0.5-1.2,0.7C20.9,42.9,21.7,31.2,30.5,26.7z M42.7,75.4c0.3-0.1,0.5-0.2,0.7-0.3   c1,1.5,3.5,5.2,6.8,7.7C45.8,81.2,43.5,77.1,42.7,75.4z M52.6,83.4c-3.8-2.1-7.1-6.8-8.3-8.6c0.2-0.1,0.4-0.2,0.6-0.3   c1.6,1.9,6.7,7.4,13.1,7.8c-0.9,0.8-2.3,1.3-3.9,1.3C53.5,83.5,53,83.4,52.6,83.4z M46.1,73.7c1.7,1.3,6.9,4.9,11.5,4.9   c0.7,0,1.3-0.1,2-0.3c0,1.2-0.3,2.3-0.8,3.1c-6.2,0-11.4-5.5-13.1-7.4C45.8,73.9,45.9,73.8,46.1,73.7z M59.5,77.5   c-4.4,1.3-10.6-2.7-12.7-4.3c0.1-0.1,0.1-0.1,0.2-0.2c1.3,0.7,4.5,2,7.8,2c1.1,0,2.2-0.2,3.3-0.5C58.8,75.3,59.3,76.4,59.5,77.5z    M51.6,72.3c1.9-0.4,3.9,0,5.4,1.2c0.2,0.1,0.3,0.3,0.5,0.4c-3.3,1-7.1-0.3-9.2-1.1C49.5,72.6,50.6,72.5,51.6,72.3z M39.4,74.7   c-2.8,0.7-6.9,0.9-11.3,0.8c1.6-2.3,4.3-7.3,1.9-13.7c-1.3-3.4-3.3-6-6.1-7.5c-0.4-0.2-0.9-0.1-1.1,0.3c-0.2,0.4-0.1,0.9,0.3,1.1   c2.4,1.4,4.3,3.6,5.4,6.7c2.6,6.8-1.3,11.8-2.4,13c-1.1-0.1-2.1-0.2-3.2-0.3c-7.4-0.8-13.3-2.7-16.7-5.4c-1.1-0.8-1.3-2.3-0.6-3.6   c0,0,0-0.1,0-0.1c0.2-0.3,0.1-0.7-0.1-0.9c-0.8-1-1.2-2.2-1.2-3.5c0-3.1,2.5-5.5,5.5-5.5c0.7,0,1.3,0.1,2,0.4   c0.3,0.1,0.7,0,0.9-0.2c4.6-5.1,9.8-9,15.4-11.5C41.9,38.8,54,45.7,57,47.7c-1.1,1.4-3.4,4.9-4.8,11.5   C50.4,67.4,47.7,72.8,39.4,74.7z M55.4,58.1c-0.1-1.4,0.1-2.7,0.4-4c-0.2,4.1,0.6,9.9,5.1,13.6C57.4,66.1,55.6,62.9,55.4,58.1z    M65.2,62.8c4.1,4.3,10.8,9,21.6,12.4c-0.1,1.8,0.4,3.3,0.9,4.3C81.5,78.5,73.2,74.6,65.2,62.8z M83.1,54.4c-3.9,1.4-9.7,0.2-14-1   c2.9,0.1,6.3-0.2,10.5-1.2c0.2-0.1,0.4-0.1,0.6-0.2C81.2,52.7,82.2,53.5,83.1,54.4z M79.2,50.6c-10.7,2.6-16.3,0.2-18.9-1.6   c1.9,0.4,4.7,1,7.8,1.3c1.6,0.2,3.4,0.3,5.3,0.3c2.8,0,5.9-0.3,8.8-1C81.2,50,80.2,50.4,79.2,50.6z M85.5,47.6   c-7.2,3-16.4,2.1-22.2,1.1c1.3,0.1,2.7,0.2,4.2,0.2c7.2,0,16.9-1.8,22.9-10C89.8,43.1,87.8,45.8,85.5,47.6z M90.2,29.9   c-0.8,1-1.7,2.6-2.5,4.2l-0.5,0.9c-2.6,5-6.8,7.3-11,9.2c-4,1.8-8.3,2.6-11.4,3c6.1-1.3,16-4.8,19.7-14.3c3-7.7,6.4-11.5,8.7-13.4   C91.1,22.4,90,26.1,90.2,29.9z"/></g><circle cx="14.1" cy="64.6" r="3.3"/><text x="0" y="115" fill="#000000" font-size="5px" font-weight="bold" font-family="'Helvetica Neue', Helvetica, Arial-Unicode, Arial, Sans-serif">Created by Nook Fulloption</text><text x="0" y="120" fill="#000000" font-size="5px" font-weight="bold" font-family="'Helvetica Neue', Helvetica, Arial-Unicode, Arial, Sans-serif">from the Noun Project</text></svg>